<mxfile host="app.diagrams.net" agent="Mozilla/5.0 (Windows NT 10.0; Win64; x64) AppleWebKit/537.36 (KHTML, like Gecko) Chrome/134.0.0.0 Safari/537.36" version="26.1.0">
  <diagram name="Page-1" id="B7bdv5J55K3J2toX62ZG">
    <mxGraphModel dx="2074" dy="1140" grid="1" gridSize="10" guides="1" tooltips="1" connect="1" arrows="1" fold="1" page="1" pageScale="1" pageWidth="850" pageHeight="1100" math="0" shadow="0">
      <root>
        <mxCell id="0" />
        <mxCell id="1" parent="0" />
        <mxCell id="lEqbA6_FQyne6eDi5kdu-4" style="edgeStyle=orthogonalEdgeStyle;rounded=0;orthogonalLoop=1;jettySize=auto;html=1;exitX=0.25;exitY=0;exitDx=0;exitDy=0;entryX=0.5;entryY=1;entryDx=0;entryDy=0;curved=1;strokeColor=default;startArrow=none;startFill=0;endArrow=none;" edge="1" parent="1" source="lEqbA6_FQyne6eDi5kdu-1" target="lEqbA6_FQyne6eDi5kdu-2">
          <mxGeometry relative="1" as="geometry" />
        </mxCell>
        <mxCell id="lEqbA6_FQyne6eDi5kdu-5" style="edgeStyle=orthogonalEdgeStyle;rounded=1;orthogonalLoop=1;jettySize=auto;html=1;exitX=0.5;exitY=0;exitDx=0;exitDy=0;endArrow=none;startFill=0;curved=0;" edge="1" parent="1" source="lEqbA6_FQyne6eDi5kdu-1">
          <mxGeometry relative="1" as="geometry">
            <mxPoint x="675" y="60" as="targetPoint" />
          </mxGeometry>
        </mxCell>
        <mxCell id="lEqbA6_FQyne6eDi5kdu-14" style="edgeStyle=orthogonalEdgeStyle;rounded=1;orthogonalLoop=1;jettySize=auto;html=1;exitX=0;exitY=0;exitDx=0;exitDy=0;entryX=1;entryY=0.5;entryDx=0;entryDy=0;curved=0;endArrow=none;startFill=0;" edge="1" parent="1" source="lEqbA6_FQyne6eDi5kdu-1" target="lEqbA6_FQyne6eDi5kdu-8">
          <mxGeometry relative="1" as="geometry" />
        </mxCell>
        <mxCell id="lEqbA6_FQyne6eDi5kdu-15" style="edgeStyle=orthogonalEdgeStyle;rounded=1;orthogonalLoop=1;jettySize=auto;html=1;exitX=0;exitY=0.25;exitDx=0;exitDy=0;entryX=1;entryY=0.5;entryDx=0;entryDy=0;endArrow=none;startFill=0;curved=0;" edge="1" parent="1" source="lEqbA6_FQyne6eDi5kdu-1" target="lEqbA6_FQyne6eDi5kdu-9">
          <mxGeometry relative="1" as="geometry" />
        </mxCell>
        <mxCell id="lEqbA6_FQyne6eDi5kdu-16" style="edgeStyle=orthogonalEdgeStyle;rounded=1;orthogonalLoop=1;jettySize=auto;html=1;exitX=0;exitY=0.5;exitDx=0;exitDy=0;entryX=1;entryY=0.5;entryDx=0;entryDy=0;endArrow=none;startFill=0;curved=0;" edge="1" parent="1" source="lEqbA6_FQyne6eDi5kdu-1" target="lEqbA6_FQyne6eDi5kdu-10">
          <mxGeometry relative="1" as="geometry" />
        </mxCell>
        <mxCell id="lEqbA6_FQyne6eDi5kdu-17" style="edgeStyle=orthogonalEdgeStyle;rounded=1;orthogonalLoop=1;jettySize=auto;html=1;exitX=0;exitY=0.75;exitDx=0;exitDy=0;entryX=1;entryY=0.5;entryDx=0;entryDy=0;endArrow=none;startFill=0;curved=0;" edge="1" parent="1" source="lEqbA6_FQyne6eDi5kdu-1" target="lEqbA6_FQyne6eDi5kdu-11">
          <mxGeometry relative="1" as="geometry" />
        </mxCell>
        <mxCell id="lEqbA6_FQyne6eDi5kdu-19" style="edgeStyle=orthogonalEdgeStyle;rounded=1;orthogonalLoop=1;jettySize=auto;html=1;exitX=0.75;exitY=0;exitDx=0;exitDy=0;entryX=0.5;entryY=1;entryDx=0;entryDy=0;curved=0;endArrow=none;startFill=0;" edge="1" parent="1" source="lEqbA6_FQyne6eDi5kdu-1" target="lEqbA6_FQyne6eDi5kdu-7">
          <mxGeometry relative="1" as="geometry" />
        </mxCell>
        <mxCell id="lEqbA6_FQyne6eDi5kdu-37" style="edgeStyle=orthogonalEdgeStyle;rounded=0;orthogonalLoop=1;jettySize=auto;html=1;exitX=1;exitY=0.5;exitDx=0;exitDy=0;curved=1;endArrow=none;startFill=0;" edge="1" parent="1" source="lEqbA6_FQyne6eDi5kdu-1">
          <mxGeometry relative="1" as="geometry">
            <mxPoint x="1030" y="160" as="targetPoint" />
          </mxGeometry>
        </mxCell>
        <mxCell id="lEqbA6_FQyne6eDi5kdu-40" style="edgeStyle=orthogonalEdgeStyle;rounded=0;orthogonalLoop=1;jettySize=auto;html=1;exitX=0.5;exitY=1;exitDx=0;exitDy=0;entryX=1;entryY=0.5;entryDx=0;entryDy=0;endArrow=none;startFill=0;" edge="1" parent="1" source="lEqbA6_FQyne6eDi5kdu-1" target="lEqbA6_FQyne6eDi5kdu-39">
          <mxGeometry relative="1" as="geometry" />
        </mxCell>
        <mxCell id="lEqbA6_FQyne6eDi5kdu-1" value="Library Item" style="whiteSpace=wrap;html=1;align=center;" vertex="1" parent="1">
          <mxGeometry x="550" y="100" width="230" height="130" as="geometry" />
        </mxCell>
        <mxCell id="lEqbA6_FQyne6eDi5kdu-2" value="&lt;u&gt;ItemID&lt;/u&gt;" style="ellipse;whiteSpace=wrap;html=1;align=center;" vertex="1" parent="1">
          <mxGeometry x="550" y="40" width="70" height="30" as="geometry" />
        </mxCell>
        <mxCell id="lEqbA6_FQyne6eDi5kdu-6" value="Type" style="ellipse;whiteSpace=wrap;html=1;align=center;" vertex="1" parent="1">
          <mxGeometry x="640" y="40" width="70" height="30" as="geometry" />
        </mxCell>
        <mxCell id="lEqbA6_FQyne6eDi5kdu-7" value="Title" style="ellipse;whiteSpace=wrap;html=1;align=center;" vertex="1" parent="1">
          <mxGeometry x="730" y="40" width="70" height="30" as="geometry" />
        </mxCell>
        <mxCell id="lEqbA6_FQyne6eDi5kdu-8" value="Author" style="ellipse;whiteSpace=wrap;html=1;align=center;" vertex="1" parent="1">
          <mxGeometry x="460" y="60" width="70" height="30" as="geometry" />
        </mxCell>
        <mxCell id="lEqbA6_FQyne6eDi5kdu-9" value="Year" style="ellipse;whiteSpace=wrap;html=1;align=center;" vertex="1" parent="1">
          <mxGeometry x="460" y="110" width="70" height="30" as="geometry" />
        </mxCell>
        <mxCell id="lEqbA6_FQyne6eDi5kdu-10" value="Issue" style="ellipse;whiteSpace=wrap;html=1;align=center;" vertex="1" parent="1">
          <mxGeometry x="460" y="160" width="70" height="30" as="geometry" />
        </mxCell>
        <mxCell id="lEqbA6_FQyne6eDi5kdu-11" value="Location" style="ellipse;whiteSpace=wrap;html=1;align=center;" vertex="1" parent="1">
          <mxGeometry x="460" y="210" width="70" height="30" as="geometry" />
        </mxCell>
        <mxCell id="lEqbA6_FQyne6eDi5kdu-12" value="Status" style="ellipse;whiteSpace=wrap;html=1;align=center;" vertex="1" parent="1">
          <mxGeometry x="540" y="260" width="70" height="30" as="geometry" />
        </mxCell>
        <mxCell id="lEqbA6_FQyne6eDi5kdu-18" style="edgeStyle=orthogonalEdgeStyle;rounded=1;orthogonalLoop=1;jettySize=auto;html=1;exitX=0.25;exitY=1;exitDx=0;exitDy=0;entryX=0.6;entryY=0;entryDx=0;entryDy=0;entryPerimeter=0;endArrow=none;startFill=0;curved=0;" edge="1" parent="1" source="lEqbA6_FQyne6eDi5kdu-1" target="lEqbA6_FQyne6eDi5kdu-12">
          <mxGeometry relative="1" as="geometry" />
        </mxCell>
        <mxCell id="lEqbA6_FQyne6eDi5kdu-27" style="edgeStyle=orthogonalEdgeStyle;rounded=1;orthogonalLoop=1;jettySize=auto;html=1;exitX=0;exitY=0;exitDx=0;exitDy=0;entryX=0.5;entryY=1;entryDx=0;entryDy=0;curved=0;endArrow=none;startFill=0;" edge="1" parent="1" source="lEqbA6_FQyne6eDi5kdu-20" target="lEqbA6_FQyne6eDi5kdu-21">
          <mxGeometry relative="1" as="geometry" />
        </mxCell>
        <mxCell id="lEqbA6_FQyne6eDi5kdu-28" style="edgeStyle=orthogonalEdgeStyle;rounded=1;orthogonalLoop=1;jettySize=auto;html=1;exitX=0.5;exitY=0;exitDx=0;exitDy=0;entryX=0.5;entryY=1;entryDx=0;entryDy=0;curved=0;endArrow=none;startFill=0;" edge="1" parent="1" source="lEqbA6_FQyne6eDi5kdu-20" target="lEqbA6_FQyne6eDi5kdu-22">
          <mxGeometry relative="1" as="geometry" />
        </mxCell>
        <mxCell id="lEqbA6_FQyne6eDi5kdu-32" style="edgeStyle=orthogonalEdgeStyle;rounded=1;orthogonalLoop=1;jettySize=auto;html=1;exitX=1;exitY=0.25;exitDx=0;exitDy=0;entryX=0;entryY=0.5;entryDx=0;entryDy=0;curved=0;endArrow=none;startFill=0;" edge="1" parent="1" source="lEqbA6_FQyne6eDi5kdu-20" target="lEqbA6_FQyne6eDi5kdu-24">
          <mxGeometry relative="1" as="geometry" />
        </mxCell>
        <mxCell id="lEqbA6_FQyne6eDi5kdu-33" style="edgeStyle=orthogonalEdgeStyle;rounded=1;orthogonalLoop=1;jettySize=auto;html=1;exitX=1;exitY=0.5;exitDx=0;exitDy=0;entryX=0;entryY=0.5;entryDx=0;entryDy=0;curved=0;endArrow=none;startFill=0;" edge="1" parent="1" source="lEqbA6_FQyne6eDi5kdu-20" target="lEqbA6_FQyne6eDi5kdu-25">
          <mxGeometry relative="1" as="geometry" />
        </mxCell>
        <mxCell id="lEqbA6_FQyne6eDi5kdu-34" style="edgeStyle=orthogonalEdgeStyle;rounded=1;orthogonalLoop=1;jettySize=auto;html=1;exitX=1;exitY=0.75;exitDx=0;exitDy=0;entryX=0;entryY=0.5;entryDx=0;entryDy=0;curved=0;endArrow=none;startFill=0;" edge="1" parent="1" source="lEqbA6_FQyne6eDi5kdu-20" target="lEqbA6_FQyne6eDi5kdu-26">
          <mxGeometry relative="1" as="geometry" />
        </mxCell>
        <mxCell id="lEqbA6_FQyne6eDi5kdu-20" value="Member" style="rounded=0;whiteSpace=wrap;html=1;" vertex="1" parent="1">
          <mxGeometry x="1400" y="100" width="230" height="130" as="geometry" />
        </mxCell>
        <mxCell id="lEqbA6_FQyne6eDi5kdu-21" value="&lt;u&gt;MemberID&lt;/u&gt;" style="ellipse;whiteSpace=wrap;html=1;align=center;" vertex="1" parent="1">
          <mxGeometry x="1350" y="40" width="70" height="30" as="geometry" />
        </mxCell>
        <mxCell id="lEqbA6_FQyne6eDi5kdu-22" value="FirstName" style="ellipse;whiteSpace=wrap;html=1;align=center;" vertex="1" parent="1">
          <mxGeometry x="1470" y="40" width="70" height="30" as="geometry" />
        </mxCell>
        <mxCell id="lEqbA6_FQyne6eDi5kdu-23" value="LastName" style="ellipse;whiteSpace=wrap;html=1;align=center;" vertex="1" parent="1">
          <mxGeometry x="1590" y="40" width="70" height="30" as="geometry" />
        </mxCell>
        <mxCell id="lEqbA6_FQyne6eDi5kdu-24" value="PhoneNumber" style="ellipse;whiteSpace=wrap;html=1;align=center;" vertex="1" parent="1">
          <mxGeometry x="1670" y="90" width="70" height="30" as="geometry" />
        </mxCell>
        <mxCell id="lEqbA6_FQyne6eDi5kdu-25" value="Email" style="ellipse;whiteSpace=wrap;html=1;align=center;" vertex="1" parent="1">
          <mxGeometry x="1670" y="140" width="70" height="30" as="geometry" />
        </mxCell>
        <mxCell id="lEqbA6_FQyne6eDi5kdu-26" value="Type" style="ellipse;whiteSpace=wrap;html=1;align=center;" vertex="1" parent="1">
          <mxGeometry x="1670" y="190" width="70" height="30" as="geometry" />
        </mxCell>
        <mxCell id="lEqbA6_FQyne6eDi5kdu-30" style="edgeStyle=orthogonalEdgeStyle;rounded=1;orthogonalLoop=1;jettySize=auto;html=1;exitX=1;exitY=0;exitDx=0;exitDy=0;entryX=0.6;entryY=1.044;entryDx=0;entryDy=0;entryPerimeter=0;curved=0;endArrow=none;startFill=0;" edge="1" parent="1" source="lEqbA6_FQyne6eDi5kdu-20" target="lEqbA6_FQyne6eDi5kdu-23">
          <mxGeometry relative="1" as="geometry" />
        </mxCell>
        <mxCell id="lEqbA6_FQyne6eDi5kdu-35" value="Borrows" style="rhombus;whiteSpace=wrap;html=1;" vertex="1" parent="1">
          <mxGeometry x="1030" y="120" width="80" height="80" as="geometry" />
        </mxCell>
        <mxCell id="lEqbA6_FQyne6eDi5kdu-38" style="edgeStyle=orthogonalEdgeStyle;rounded=0;orthogonalLoop=1;jettySize=auto;html=1;exitX=1;exitY=0.5;exitDx=0;exitDy=0;entryX=0.003;entryY=0.436;entryDx=0;entryDy=0;entryPerimeter=0;curved=1;" edge="1" parent="1" source="lEqbA6_FQyne6eDi5kdu-35" target="lEqbA6_FQyne6eDi5kdu-20">
          <mxGeometry relative="1" as="geometry" />
        </mxCell>
        <mxCell id="lEqbA6_FQyne6eDi5kdu-41" style="edgeStyle=orthogonalEdgeStyle;rounded=0;orthogonalLoop=1;jettySize=auto;html=1;exitX=0;exitY=0.5;exitDx=0;exitDy=0;" edge="1" parent="1" source="lEqbA6_FQyne6eDi5kdu-39">
          <mxGeometry relative="1" as="geometry">
            <mxPoint x="664" y="550" as="targetPoint" />
          </mxGeometry>
        </mxCell>
        <mxCell id="lEqbA6_FQyne6eDi5kdu-39" value="" style="triangle;whiteSpace=wrap;html=1;rotation=-89;" vertex="1" parent="1">
          <mxGeometry x="641.1" y="348.75" width="47.5" height="80" as="geometry" />
        </mxCell>
        <mxCell id="lEqbA6_FQyne6eDi5kdu-42" value="FutureItem" style="whiteSpace=wrap;html=1;align=center;" vertex="1" parent="1">
          <mxGeometry x="550" y="540" width="230" height="130" as="geometry" />
        </mxCell>
        <mxCell id="lEqbA6_FQyne6eDi5kdu-43" value="ISA" style="text;html=1;align=center;verticalAlign=middle;resizable=0;points=[];autosize=1;strokeColor=none;fillColor=none;" vertex="1" parent="1">
          <mxGeometry x="645" y="380" width="40" height="30" as="geometry" />
        </mxCell>
      </root>
    </mxGraphModel>
  </diagram>
</mxfile>
